<svg width="194" height="177" xmlns="http://www.w3.org/2000/svg" preserveAspectRatio="xMidYMid meet" version="1.0">

 <g fill="#57609c">
  <title>Layer 1</title>
  <path stroke="null" id="svg_2" d="m59.4,1.5c-4.7,2.1 -8,7.2 -10.8,16.9c-3.1,10.7 -3.5,11.5 -8.5,16c-5.4,4.8 -9.2,5.7 -25.8,5.7l-14.3,0l0,4.7c0,2.7 0.7,16.2 1.5,30.2c1.3,22.3 1.3,29.3 0,58c-0.8,17.9 -1.5,35.2 -1.5,38.3l0,5.8l97.1,0l97.1,0l-0.6,-8.2c-0.3,-4.6 -1.1,-21.9 -1.7,-38.6c-1.1,-28.7 -0.5,-61 1.7,-83.9l0.6,-6.1l-16.3,-0.4c-14.7,-0.3 -16.8,-0.6 -20.7,-2.6c-5.6,-3 -9.6,-8.7 -11.5,-16.4c-3,-12.1 -6,-16.8 -12.3,-19.4c-4.8,-2 -69.4,-2 -74,0zm55.1,14.1c3,3 3.1,5.4 0.4,8.9l-2,2.6l-16,0c-14.6,0 -16.1,-0.2 -17.9,-2c-1.1,-1.1 -2,-3.3 -2,-5c0,-1.7 0.9,-3.9 2,-5c1.8,-1.8 3.3,-2 17.5,-2c15.2,0 15.6,0.1 18,2.5zm-11.4,34.6c4.7,5.1 12,19.7 15,29.9c1.9,6.8 2.8,8.2 9,14.5l6.9,7l0,18.8l0,18.7l-5.2,0c-5.1,0 -5.4,-0.2 -12,-6.7c-6.4,-6.4 -6.8,-6.6 -8.6,-5c-2.6,2.4 -19.1,2.4 -22.8,0c-2.5,-1.6 -2.6,-1.6 -9.2,5c-6.6,6.5 -6.9,6.7 -12,6.7l-5.2,0l0,-18.3l0,-18.3l7,-6.9c5.8,-5.8 7.2,-7.9 8.5,-12.5c5.5,-19.5 16.1,-37 22.3,-37c1.6,0 3.8,1.4 6.3,4.1zm-10.1,87.2c0,4.7 2.3,8.9 4.4,8.1c2,-0.8 3.8,-5.7 3.4,-9.1c-0.3,-2.4 0.1,-2.8 2.3,-3.1c3,-0.3 3.9,1.6 3.9,8.3c0,6.7 -6.5,17.5 -10.5,17.5c-4.3,0 -11,-13.8 -9.9,-20.3c0.9,-5.3 1.2,-5.7 3.9,-5.7c2.3,0 2.5,0.4 2.5,4.3z"/>
  <path stroke="null" id="svg_3" d="m93,72.3c-1.6,2.2 -3,4.4 -3,4.9c0,0.4 -0.2,1.3 -0.5,2.1c-0.4,1 1.2,1.3 7.3,1.3l7.9,0l-1.5,-3.5c-1.8,-4.4 -5,-9 -6.3,-9c-0.5,0 -2.2,1.9 -3.9,4.2z"/>
 </g>
</svg>