<?xml version="1.0" standalone="no"?>
<!DOCTYPE svg PUBLIC "-//W3C//DTD SVG 20010904//EN"
 "http://www.w3.org/TR/2001/REC-SVG-20010904/DTD/svg10.dtd">
<svg version="1.0" xmlns="http://www.w3.org/2000/svg"
 width="1024.000000pt" height="310.000000pt" viewBox="0 0 1024.000000 310.000000"
 preserveAspectRatio="xMidYMid meet">

<g transform="translate(0.000000,310.000000) scale(0.100000,-0.100000)"
fill="#57609c" stroke="none">
<path d="M1124 2466 c-47 -21 -80 -72 -108 -169 -31 -107 -35 -115 -85 -160
-54 -48 -92 -57 -258 -57 l-143 0 0 -47 c0 -27 7 -162 15 -302 13 -223 13
-293 0 -580 -8 -179 -15 -352 -15 -383 l0 -58 971 0 971 0 -6 82 c-3 46 -11
219 -17 386 -11 287 -5 610 17 839 l6 61 -163 4 c-147 3 -168 6 -207 26 -56
30 -96 87 -115 164 -30 121 -60 168 -123 194 -48 20 -694 20 -740 0z m551
-141 c30 -30 31 -54 4 -89 l-20 -26 -160 0 c-146 0 -161 2 -179 20 -11 11 -20
33 -20 50 0 17 9 39 20 50 18 18 33 20 175 20 152 0 156 -1 180 -25z m-114
-346 c47 -51 120 -197 150 -299 19 -68 28 -82 90 -145 l69 -70 0 -188 0 -187
-52 0 c-51 0 -54 2 -120 67 -64 64 -68 66 -86 50 -26 -24 -191 -24 -228 0 -25
16 -26 16 -92 -50 -66 -65 -69 -67 -120 -67 l-52 0 0 183 0 183 70 69 c58 58
72 79 85 125 55 195 161 370 223 370 16 0 38 -14 63 -41z m-101 -872 c0 -47
23 -89 44 -81 20 8 38 57 34 91 -3 24 1 28 23 31 30 3 39 -16 39 -83 0 -67
-65 -175 -105 -175 -43 0 -110 138 -99 203 9 53 12 57 39 57 23 0 25 -4 25
-43z"/>
<path d="M1460 1758 c-16 -22 -30 -44 -30 -49 0 -4 -2 -13 -5 -21 -4 -10 12
-13 73 -13 l79 0 -15 35 c-18 44 -50 90 -63 90 -5 0 -22 -19 -39 -42z"/>
<path d="M5197 2119 c-38 -9 -69 -19 -70 -21 -1 -1 -1 -234 1 -515 l3 -513 74
0 75 0 -1 518 c0 284 -3 524 -7 533 -6 14 -13 14 -75 -2z"/>
<path d="M7642 2115 c-30 -7 -54 -15 -55 -17 -1 -1 0 -212 3 -468 5 -433 6
-468 24 -504 30 -60 122 -92 204 -70 25 7 26 14 11 67 -7 26 -16 37 -29 37
-10 0 -26 10 -34 22 -14 20 -16 80 -16 454 0 237 -3 446 -6 463 -7 35 -17 37
-102 16z"/>
<path d="M2970 2061 c0 -15 -79 -882 -85 -938 l-6 -53 80 0 c72 0 81 2 81 18
0 24 49 709 53 742 3 24 3 24 11 -5 4 -16 52 -192 105 -390 l98 -360 70 -3 71
-3 14 48 c8 26 56 197 108 378 51 182 96 337 99 345 3 8 7 -10 9 -40 1 -30 14
-203 27 -384 14 -181 25 -332 25 -337 0 -5 36 -9 81 -9 l80 0 -5 43 c-4 23
-22 227 -41 452 -19 226 -38 431 -41 458 l-6 47 -109 0 c-60 0 -109 -2 -109
-4 0 -2 -38 -141 -84 -307 -46 -167 -89 -331 -96 -363 -13 -64 -22 -61 -35 9
-5 32 -149 576 -171 648 -5 15 -19 17 -115 17 -60 0 -109 -4 -109 -9z"/>
<path d="M6545 2001 l-70 -16 -3 -93 -3 -92 -44 0 -45 0 0 -49 0 -50 43 -3 42
-3 5 -270 c6 -312 8 -322 87 -357 36 -16 60 -19 117 -16 39 3 83 10 97 16 26
10 26 12 16 55 l-10 44 -37 -9 c-48 -12 -107 10 -115 44 -3 13 -4 129 -3 258
l3 235 65 1 65 1 17 44 c9 24 17 47 17 52 1 4 -38 7 -85 7 l-87 0 6 110 c3 61
3 109 -1 109 -4 -1 -38 -9 -77 -18z"/>
<path d="M4230 1813 c-66 -11 -211 -70 -224 -91 -3 -5 8 -28 24 -53 17 -24 31
-48 33 -53 2 -5 21 2 42 16 64 39 121 58 179 58 79 0 99 -20 104 -104 l4 -66
-43 0 c-74 -1 -180 -19 -228 -41 -94 -41 -141 -112 -141 -214 0 -140 84 -217
235 -218 79 0 134 19 178 61 28 26 29 27 39 7 16 -28 68 -75 83 -75 7 0 29 21
50 46 l37 45 -20 22 c-40 44 -42 60 -42 297 0 255 -2 263 -64 318 -49 43 -149
61 -246 45z m158 -489 l3 -91 -35 -31 c-126 -110 -257 -8 -192 149 15 35 114
70 191 66 l30 -2 3 -91z"/>
<path d="M4750 1800 c-60 -15 -65 -18 -61 -41 2 -13 5 -174 8 -356 l4 -333 77
0 77 0 0 254 c0 241 1 256 21 282 35 47 69 66 120 68 l47 1 23 67 c19 57 20
67 7 72 -52 20 -146 -14 -191 -70 -33 -41 -42 -43 -42 -6 -1 15 -6 39 -13 53
l-12 26 -65 -17z"/>
<path d="M5991 1810 c-105 -22 -186 -104 -222 -223 -18 -58 -21 -86 -16 -175
3 -60 12 -127 21 -152 27 -74 84 -141 151 -175 54 -28 66 -30 164 -30 96 0
111 3 161 28 30 15 64 34 75 42 19 15 19 16 1 50 -30 55 -41 60 -72 36 -40
-32 -128 -54 -179 -46 -89 13 -155 91 -155 182 l0 43 220 0 220 0 0 48 c0 71
-19 170 -42 224 -48 112 -191 176 -327 148z m135 -129 c37 -23 65 -77 67 -134
l2 -42 -137 -3 -138 -3 0 36 c0 63 41 137 85 156 35 14 89 10 121 -10z"/>
<path d="M6950 1809 c-83 -16 -91 -19 -83 -32 4 -7 10 -240 13 -518 l5 -506
74 20 73 20 -3 158 c-2 88 -3 159 -3 159 1 0 23 -12 50 -27 69 -39 177 -40
249 -2 98 50 153 160 162 321 12 201 -50 343 -171 393 -82 35 -220 12 -270
-43 -25 -28 -36 -19 -36 29 0 21 -3 39 -7 38 -5 -1 -28 -5 -53 -10z m312 -145
c44 -39 61 -100 61 -219 0 -124 -12 -180 -49 -224 -49 -59 -127 -63 -211 -11
l-33 20 0 194 0 195 34 26 c19 15 47 30 63 35 41 14 111 5 135 -16z"/>
<path d="M8104 1806 c-58 -14 -177 -66 -188 -84 -3 -5 9 -31 26 -59 l31 -50
68 35 c70 36 151 51 203 38 34 -8 56 -54 56 -116 l0 -50 -42 0 c-151 -1 -284
-50 -334 -122 -25 -36 -29 -52 -32 -122 -5 -109 20 -158 100 -199 95 -49 215
-41 295 20 35 26 48 32 52 22 7 -21 67 -79 82 -79 8 0 31 21 52 47 31 38 36
49 25 58 -46 34 -48 49 -48 292 0 140 -4 243 -11 260 -37 98 -179 144 -335
109z m194 -479 c3 -88 3 -88 -31 -122 -95 -95 -229 -43 -213 83 7 57 20 79 58
98 35 18 108 33 153 31 l30 -2 3 -88z"/>
<path d="M8815 1811 c-134 -33 -223 -146 -247 -311 -22 -154 25 -320 110 -390
64 -53 198 -76 292 -50 46 13 130 66 130 82 -1 7 -16 30 -34 52 l-33 38 -42
-30 c-52 -38 -107 -48 -152 -29 -68 29 -94 79 -104 200 -12 135 20 259 76 300
39 28 111 25 159 -7 l39 -26 36 47 c19 25 35 49 35 54 0 14 -61 51 -107 65
-49 15 -109 17 -158 5z"/>
<path d="M9373 1810 c-58 -12 -91 -31 -140 -81 -71 -71 -102 -158 -103 -286 0
-134 36 -238 107 -309 53 -53 113 -77 209 -82 95 -5 165 12 237 58 l48 30 -31
44 -30 45 -55 -29 c-164 -86 -315 -11 -315 158 l0 32 221 0 222 0 -6 93 c-8
121 -28 184 -77 239 -64 74 -183 110 -287 88z m152 -143 c33 -33 55 -88 55
-140 l0 -28 -137 3 -138 3 1 46 c3 91 59 149 143 149 35 0 49 -6 76 -33z"/>
<path d="M5415 1645 c-59 -85 -105 -161 -103 -169 2 -7 62 -102 133 -210 l130
-196 93 0 c72 0 91 3 86 13 -5 6 -69 95 -144 197 -75 102 -139 191 -144 198
-5 8 33 62 111 160 65 80 120 150 121 154 2 5 -37 8 -87 8 l-90 0 -106 -155z"/>
</g>
</svg>