<?xml version="1.0" standalone="no"?>
<!DOCTYPE svg PUBLIC "-//W3C//DTD SVG 20010904//EN"
 "http://www.w3.org/TR/2001/REC-SVG-20010904/DTD/svg10.dtd">
<svg version="1.0" xmlns="http://www.w3.org/2000/svg"
 width="194.000000pt" height="194.000000pt" viewBox="0 0 194.000000 194.000000"
 preserveAspectRatio="xMidYMid meet">
<metadata>
Created by potrace 1.14, written by Peter Selinger 2001-2017
</metadata>
<g transform="translate(0.000000,194.000000) scale(0.100000,-0.100000)"
fill="#000000" stroke="none">
<path d="M630 1843 c-70 -10 -104 -54 -150 -197 -27 -83 -37 -100 -76 -135
-57 -50 -106 -61 -275 -61 l-131 0 6 -122 c3 -68 9 -184 13 -258 8 -170 8
-311 -1 -520 -4 -91 -9 -234 -12 -317 l-5 -153 971 0 972 0 -6 82 c-26 366
-26 943 0 1236 l4 52 -102 1 c-169 1 -224 7 -268 29 -46 24 -94 91 -111 155
-35 138 -77 191 -160 204 -51 8 -614 11 -669 4z m511 -150 c35 -30 37 -53 6
-88 -23 -27 -24 -27 -156 -26 -172 1 -196 5 -211 40 -16 39 -4 78 28 89 15 6
89 10 165 10 132 0 139 -1 168 -25z m-142 -319 c50 -30 128 -168 177 -314 25
-75 37 -94 96 -156 l68 -71 0 -187 0 -186 -50 0 c-48 0 -54 3 -116 61 -58 54
-68 60 -92 52 -43 -13 -217 -10 -234 5 -13 11 -26 3 -87 -53 -68 -62 -73 -65
-121 -65 l-50 0 0 181 0 182 68 71 c61 64 72 82 101 166 42 121 66 172 113
242 36 54 71 88 91 88 5 0 21 -7 36 -16z m-83 -862 c6 -4 14 -27 17 -51 3 -24
12 -50 20 -58 21 -21 44 6 52 61 12 78 65 66 65 -14 0 -70 -52 -173 -93 -186
-43 -14 -116 111 -110 186 6 64 20 82 49 62z"/>
<path d="M940 1138 c-30 -33 -48 -73 -36 -85 11 -11 136 -10 136 1 0 12 -58
116 -65 116 -2 0 -18 -15 -35 -32z"/>
</g>
</svg>
